G04 #@! TF.GenerationSoftware,KiCad,Pcbnew,5.1.5-52549c5~84~ubuntu18.04.1*
G04 #@! TF.CreationDate,2020-01-16T13:38:08+00:00*
G04 #@! TF.ProjectId,012-fx888d-repair,3031322d-6678-4383-9838-642d72657061,1*
G04 #@! TF.SameCoordinates,Original*
G04 #@! TF.FileFunction,Legend,Top*
G04 #@! TF.FilePolarity,Positive*
%FSLAX46Y46*%
G04 Gerber Fmt 4.6, Leading zero omitted, Abs format (unit mm)*
G04 Created by KiCad (PCBNEW 5.1.5-52549c5~84~ubuntu18.04.1) date 2020-01-16 13:38:08*
%MOMM*%
%LPD*%
G04 APERTURE LIST*
%ADD10C,0.150000*%
%ADD11C,0.100000*%
%ADD12C,0.120000*%
G04 APERTURE END LIST*
D10*
X162477142Y-99877380D02*
X162429523Y-99925000D01*
X162334285Y-99972619D01*
X162096190Y-99972619D01*
X162000952Y-99925000D01*
X161953333Y-99877380D01*
X161905714Y-99782142D01*
X161905714Y-99686904D01*
X161953333Y-99544047D01*
X162524761Y-98972619D01*
X161905714Y-98972619D01*
X161286666Y-99972619D02*
X161191428Y-99972619D01*
X161096190Y-99925000D01*
X161048571Y-99877380D01*
X161000952Y-99782142D01*
X160953333Y-99591666D01*
X160953333Y-99353571D01*
X161000952Y-99163095D01*
X161048571Y-99067857D01*
X161096190Y-99020238D01*
X161191428Y-98972619D01*
X161286666Y-98972619D01*
X161381904Y-99020238D01*
X161429523Y-99067857D01*
X161477142Y-99163095D01*
X161524761Y-99353571D01*
X161524761Y-99591666D01*
X161477142Y-99782142D01*
X161429523Y-99877380D01*
X161381904Y-99925000D01*
X161286666Y-99972619D01*
X160000952Y-98972619D02*
X160572380Y-98972619D01*
X160286666Y-98972619D02*
X160286666Y-99972619D01*
X160381904Y-99829761D01*
X160477142Y-99734523D01*
X160572380Y-99686904D01*
X159524761Y-98972619D02*
X159334285Y-98972619D01*
X159239047Y-99020238D01*
X159191428Y-99067857D01*
X159096190Y-99210714D01*
X159048571Y-99401190D01*
X159048571Y-99782142D01*
X159096190Y-99877380D01*
X159143809Y-99925000D01*
X159239047Y-99972619D01*
X159429523Y-99972619D01*
X159524761Y-99925000D01*
X159572380Y-99877380D01*
X159620000Y-99782142D01*
X159620000Y-99544047D01*
X159572380Y-99448809D01*
X159524761Y-99401190D01*
X159429523Y-99353571D01*
X159239047Y-99353571D01*
X159143809Y-99401190D01*
X159096190Y-99448809D01*
X159048571Y-99544047D01*
X158620000Y-99353571D02*
X157858095Y-99353571D01*
X156858095Y-98972619D02*
X157429523Y-98972619D01*
X157143809Y-98972619D02*
X157143809Y-99972619D01*
X157239047Y-99829761D01*
X157334285Y-99734523D01*
X157429523Y-99686904D01*
X155905714Y-98972619D02*
X156477142Y-98972619D01*
X156191428Y-98972619D02*
X156191428Y-99972619D01*
X156286666Y-99829761D01*
X156381904Y-99734523D01*
X156477142Y-99686904D01*
X155477142Y-99353571D02*
X154715238Y-99353571D01*
X154334285Y-99972619D02*
X153715238Y-99972619D01*
X154048571Y-99591666D01*
X153905714Y-99591666D01*
X153810476Y-99544047D01*
X153762857Y-99496428D01*
X153715238Y-99401190D01*
X153715238Y-99163095D01*
X153762857Y-99067857D01*
X153810476Y-99020238D01*
X153905714Y-98972619D01*
X154191428Y-98972619D01*
X154286666Y-99020238D01*
X154334285Y-99067857D01*
X153096190Y-99972619D02*
X153000952Y-99972619D01*
X152905714Y-99925000D01*
X152858095Y-99877380D01*
X152810476Y-99782142D01*
X152762857Y-99591666D01*
X152762857Y-99353571D01*
X152810476Y-99163095D01*
X152858095Y-99067857D01*
X152905714Y-99020238D01*
X153000952Y-98972619D01*
X153096190Y-98972619D01*
X153191428Y-99020238D01*
X153239047Y-99067857D01*
X153286666Y-99163095D01*
X153334285Y-99353571D01*
X153334285Y-99591666D01*
X153286666Y-99782142D01*
X153239047Y-99877380D01*
X153191428Y-99925000D01*
X153096190Y-99972619D01*
X195928571Y-126331071D02*
X195928571Y-126664404D01*
X196452380Y-126664404D02*
X195452380Y-126664404D01*
X195452380Y-126188214D01*
X195452380Y-125902500D02*
X196452380Y-125235833D01*
X195452380Y-125235833D02*
X196452380Y-125902500D01*
X196071428Y-124854880D02*
X196071428Y-124092976D01*
X195880952Y-123473928D02*
X195833333Y-123569166D01*
X195785714Y-123616785D01*
X195690476Y-123664404D01*
X195642857Y-123664404D01*
X195547619Y-123616785D01*
X195500000Y-123569166D01*
X195452380Y-123473928D01*
X195452380Y-123283452D01*
X195500000Y-123188214D01*
X195547619Y-123140595D01*
X195642857Y-123092976D01*
X195690476Y-123092976D01*
X195785714Y-123140595D01*
X195833333Y-123188214D01*
X195880952Y-123283452D01*
X195880952Y-123473928D01*
X195928571Y-123569166D01*
X195976190Y-123616785D01*
X196071428Y-123664404D01*
X196261904Y-123664404D01*
X196357142Y-123616785D01*
X196404761Y-123569166D01*
X196452380Y-123473928D01*
X196452380Y-123283452D01*
X196404761Y-123188214D01*
X196357142Y-123140595D01*
X196261904Y-123092976D01*
X196071428Y-123092976D01*
X195976190Y-123140595D01*
X195928571Y-123188214D01*
X195880952Y-123283452D01*
X195880952Y-122521547D02*
X195833333Y-122616785D01*
X195785714Y-122664404D01*
X195690476Y-122712023D01*
X195642857Y-122712023D01*
X195547619Y-122664404D01*
X195500000Y-122616785D01*
X195452380Y-122521547D01*
X195452380Y-122331071D01*
X195500000Y-122235833D01*
X195547619Y-122188214D01*
X195642857Y-122140595D01*
X195690476Y-122140595D01*
X195785714Y-122188214D01*
X195833333Y-122235833D01*
X195880952Y-122331071D01*
X195880952Y-122521547D01*
X195928571Y-122616785D01*
X195976190Y-122664404D01*
X196071428Y-122712023D01*
X196261904Y-122712023D01*
X196357142Y-122664404D01*
X196404761Y-122616785D01*
X196452380Y-122521547D01*
X196452380Y-122331071D01*
X196404761Y-122235833D01*
X196357142Y-122188214D01*
X196261904Y-122140595D01*
X196071428Y-122140595D01*
X195976190Y-122188214D01*
X195928571Y-122235833D01*
X195880952Y-122331071D01*
X195880952Y-121569166D02*
X195833333Y-121664404D01*
X195785714Y-121712023D01*
X195690476Y-121759642D01*
X195642857Y-121759642D01*
X195547619Y-121712023D01*
X195500000Y-121664404D01*
X195452380Y-121569166D01*
X195452380Y-121378690D01*
X195500000Y-121283452D01*
X195547619Y-121235833D01*
X195642857Y-121188214D01*
X195690476Y-121188214D01*
X195785714Y-121235833D01*
X195833333Y-121283452D01*
X195880952Y-121378690D01*
X195880952Y-121569166D01*
X195928571Y-121664404D01*
X195976190Y-121712023D01*
X196071428Y-121759642D01*
X196261904Y-121759642D01*
X196357142Y-121712023D01*
X196404761Y-121664404D01*
X196452380Y-121569166D01*
X196452380Y-121378690D01*
X196404761Y-121283452D01*
X196357142Y-121235833D01*
X196261904Y-121188214D01*
X196071428Y-121188214D01*
X195976190Y-121235833D01*
X195928571Y-121283452D01*
X195880952Y-121378690D01*
X196452380Y-120759642D02*
X195452380Y-120759642D01*
X195452380Y-120521547D01*
X195500000Y-120378690D01*
X195595238Y-120283452D01*
X195690476Y-120235833D01*
X195880952Y-120188214D01*
X196023809Y-120188214D01*
X196214285Y-120235833D01*
X196309523Y-120283452D01*
X196404761Y-120378690D01*
X196452380Y-120521547D01*
X196452380Y-120759642D01*
X196452380Y-118997738D02*
X195452380Y-118997738D01*
X195785714Y-118521547D02*
X196452380Y-118521547D01*
X195880952Y-118521547D02*
X195833333Y-118473928D01*
X195785714Y-118378690D01*
X195785714Y-118235833D01*
X195833333Y-118140595D01*
X195928571Y-118092976D01*
X196452380Y-118092976D01*
X195785714Y-117616785D02*
X196785714Y-117616785D01*
X195833333Y-117616785D02*
X195785714Y-117521547D01*
X195785714Y-117331071D01*
X195833333Y-117235833D01*
X195880952Y-117188214D01*
X195976190Y-117140595D01*
X196261904Y-117140595D01*
X196357142Y-117188214D01*
X196404761Y-117235833D01*
X196452380Y-117331071D01*
X196452380Y-117521547D01*
X196404761Y-117616785D01*
X195785714Y-116283452D02*
X196452380Y-116283452D01*
X195785714Y-116712023D02*
X196309523Y-116712023D01*
X196404761Y-116664404D01*
X196452380Y-116569166D01*
X196452380Y-116426309D01*
X196404761Y-116331071D01*
X196357142Y-116283452D01*
X195785714Y-115950119D02*
X195785714Y-115569166D01*
X195452380Y-115807261D02*
X196309523Y-115807261D01*
X196404761Y-115759642D01*
X196452380Y-115664404D01*
X196452380Y-115569166D01*
X195928571Y-114140595D02*
X195976190Y-113997738D01*
X196023809Y-113950119D01*
X196119047Y-113902500D01*
X196261904Y-113902500D01*
X196357142Y-113950119D01*
X196404761Y-113997738D01*
X196452380Y-114092976D01*
X196452380Y-114473928D01*
X195452380Y-114473928D01*
X195452380Y-114140595D01*
X195500000Y-114045357D01*
X195547619Y-113997738D01*
X195642857Y-113950119D01*
X195738095Y-113950119D01*
X195833333Y-113997738D01*
X195880952Y-114045357D01*
X195928571Y-114140595D01*
X195928571Y-114473928D01*
X196452380Y-113331071D02*
X196404761Y-113426309D01*
X196357142Y-113473928D01*
X196261904Y-113521547D01*
X195976190Y-113521547D01*
X195880952Y-113473928D01*
X195833333Y-113426309D01*
X195785714Y-113331071D01*
X195785714Y-113188214D01*
X195833333Y-113092976D01*
X195880952Y-113045357D01*
X195976190Y-112997738D01*
X196261904Y-112997738D01*
X196357142Y-113045357D01*
X196404761Y-113092976D01*
X196452380Y-113188214D01*
X196452380Y-113331071D01*
X196452380Y-112140595D02*
X195928571Y-112140595D01*
X195833333Y-112188214D01*
X195785714Y-112283452D01*
X195785714Y-112473928D01*
X195833333Y-112569166D01*
X196404761Y-112140595D02*
X196452380Y-112235833D01*
X196452380Y-112473928D01*
X196404761Y-112569166D01*
X196309523Y-112616785D01*
X196214285Y-112616785D01*
X196119047Y-112569166D01*
X196071428Y-112473928D01*
X196071428Y-112235833D01*
X196023809Y-112140595D01*
X196452380Y-111664404D02*
X195785714Y-111664404D01*
X195976190Y-111664404D02*
X195880952Y-111616785D01*
X195833333Y-111569166D01*
X195785714Y-111473928D01*
X195785714Y-111378690D01*
X196452380Y-110616785D02*
X195452380Y-110616785D01*
X196404761Y-110616785D02*
X196452380Y-110712023D01*
X196452380Y-110902500D01*
X196404761Y-110997738D01*
X196357142Y-111045357D01*
X196261904Y-111092976D01*
X195976190Y-111092976D01*
X195880952Y-111045357D01*
X195833333Y-110997738D01*
X195785714Y-110902500D01*
X195785714Y-110712023D01*
X195833333Y-110616785D01*
D11*
G36*
X197500000Y-103500000D02*
G01*
X197300000Y-103700000D01*
X197100000Y-103500000D01*
X197300000Y-103300000D01*
X197500000Y-103500000D01*
G37*
X197500000Y-103500000D02*
X197300000Y-103700000D01*
X197100000Y-103500000D01*
X197300000Y-103300000D01*
X197500000Y-103500000D01*
G36*
X196700000Y-103500000D02*
G01*
X194600000Y-103800000D01*
X194600000Y-103200000D01*
X196700000Y-103500000D01*
G37*
X196700000Y-103500000D02*
X194600000Y-103800000D01*
X194600000Y-103200000D01*
X196700000Y-103500000D01*
D12*
X194600000Y-103200000D02*
X196700000Y-103500000D01*
X194600000Y-103800000D02*
X194600000Y-103200000D01*
X196700000Y-103500000D02*
X194600000Y-103800000D01*
X197500000Y-103500000D02*
G75*
G03X197500000Y-103500000I-200000J0D01*
G01*
X193500000Y-103500000D02*
X198000000Y-106000000D01*
X198000000Y-101000000D02*
X193500000Y-103500000D01*
X198000000Y-106000000D02*
X198000000Y-101000000D01*
D10*
X198452380Y-126664404D02*
X197452380Y-126664404D01*
X197452380Y-126426309D01*
X197500000Y-126283452D01*
X197595238Y-126188214D01*
X197690476Y-126140595D01*
X197880952Y-126092976D01*
X198023809Y-126092976D01*
X198214285Y-126140595D01*
X198309523Y-126188214D01*
X198404761Y-126283452D01*
X198452380Y-126426309D01*
X198452380Y-126664404D01*
X198166666Y-125712023D02*
X198166666Y-125235833D01*
X198452380Y-125807261D02*
X197452380Y-125473928D01*
X198452380Y-125140595D01*
X198452380Y-124807261D02*
X197452380Y-124807261D01*
X198452380Y-124235833D01*
X197452380Y-124235833D01*
X197500000Y-123235833D02*
X197452380Y-123331071D01*
X197452380Y-123473928D01*
X197500000Y-123616785D01*
X197595238Y-123712023D01*
X197690476Y-123759642D01*
X197880952Y-123807261D01*
X198023809Y-123807261D01*
X198214285Y-123759642D01*
X198309523Y-123712023D01*
X198404761Y-123616785D01*
X198452380Y-123473928D01*
X198452380Y-123378690D01*
X198404761Y-123235833D01*
X198357142Y-123188214D01*
X198023809Y-123188214D01*
X198023809Y-123378690D01*
X197928571Y-122759642D02*
X197928571Y-122426309D01*
X198452380Y-122283452D02*
X198452380Y-122759642D01*
X197452380Y-122759642D01*
X197452380Y-122283452D01*
X198452380Y-121283452D02*
X197976190Y-121616785D01*
X198452380Y-121854880D02*
X197452380Y-121854880D01*
X197452380Y-121473928D01*
X197500000Y-121378690D01*
X197547619Y-121331071D01*
X197642857Y-121283452D01*
X197785714Y-121283452D01*
X197880952Y-121331071D01*
X197928571Y-121378690D01*
X197976190Y-121473928D01*
X197976190Y-121854880D01*
X198357142Y-120854880D02*
X198404761Y-120807261D01*
X198452380Y-120854880D01*
X198404761Y-120902500D01*
X198357142Y-120854880D01*
X198452380Y-120854880D01*
X198071428Y-120854880D02*
X197500000Y-120902500D01*
X197452380Y-120854880D01*
X197500000Y-120807261D01*
X198071428Y-120854880D01*
X197452380Y-120854880D01*
X198357142Y-120378690D02*
X198404761Y-120331071D01*
X198452380Y-120378690D01*
X198404761Y-120426309D01*
X198357142Y-120378690D01*
X198452380Y-120378690D01*
X197833333Y-120378690D02*
X197880952Y-120331071D01*
X197928571Y-120378690D01*
X197880952Y-120426309D01*
X197833333Y-120378690D01*
X197928571Y-120378690D01*
X198452380Y-119140595D02*
X197452380Y-119140595D01*
X198166666Y-118807261D01*
X197452380Y-118473928D01*
X198452380Y-118473928D01*
X198452380Y-117569166D02*
X197928571Y-117569166D01*
X197833333Y-117616785D01*
X197785714Y-117712023D01*
X197785714Y-117902500D01*
X197833333Y-117997738D01*
X198404761Y-117569166D02*
X198452380Y-117664404D01*
X198452380Y-117902500D01*
X198404761Y-117997738D01*
X198309523Y-118045357D01*
X198214285Y-118045357D01*
X198119047Y-117997738D01*
X198071428Y-117902500D01*
X198071428Y-117664404D01*
X198023809Y-117569166D01*
X198452380Y-117092976D02*
X197785714Y-117092976D01*
X197452380Y-117092976D02*
X197500000Y-117140595D01*
X197547619Y-117092976D01*
X197500000Y-117045357D01*
X197452380Y-117092976D01*
X197547619Y-117092976D01*
X197785714Y-116616785D02*
X198452380Y-116616785D01*
X197880952Y-116616785D02*
X197833333Y-116569166D01*
X197785714Y-116473928D01*
X197785714Y-116331071D01*
X197833333Y-116235833D01*
X197928571Y-116188214D01*
X198452380Y-116188214D01*
X198404761Y-115759642D02*
X198452380Y-115664404D01*
X198452380Y-115473928D01*
X198404761Y-115378690D01*
X198309523Y-115331071D01*
X198261904Y-115331071D01*
X198166666Y-115378690D01*
X198119047Y-115473928D01*
X198119047Y-115616785D01*
X198071428Y-115712023D01*
X197976190Y-115759642D01*
X197928571Y-115759642D01*
X197833333Y-115712023D01*
X197785714Y-115616785D01*
X197785714Y-115473928D01*
X197833333Y-115378690D01*
X197452380Y-114283452D02*
X198452380Y-113950119D01*
X197452380Y-113616785D01*
X198452380Y-113140595D02*
X198404761Y-113235833D01*
X198357142Y-113283452D01*
X198261904Y-113331071D01*
X197976190Y-113331071D01*
X197880952Y-113283452D01*
X197833333Y-113235833D01*
X197785714Y-113140595D01*
X197785714Y-112997738D01*
X197833333Y-112902500D01*
X197880952Y-112854880D01*
X197976190Y-112807261D01*
X198261904Y-112807261D01*
X198357142Y-112854880D01*
X198404761Y-112902500D01*
X198452380Y-112997738D01*
X198452380Y-113140595D01*
X198452380Y-112235833D02*
X198404761Y-112331071D01*
X198309523Y-112378690D01*
X197452380Y-112378690D01*
X197785714Y-111997738D02*
X197785714Y-111616785D01*
X197452380Y-111854880D02*
X198309523Y-111854880D01*
X198404761Y-111807261D01*
X198452380Y-111712023D01*
X198452380Y-111616785D01*
X198452380Y-110854880D02*
X197928571Y-110854880D01*
X197833333Y-110902500D01*
X197785714Y-110997738D01*
X197785714Y-111188214D01*
X197833333Y-111283452D01*
X198404761Y-110854880D02*
X198452380Y-110950119D01*
X198452380Y-111188214D01*
X198404761Y-111283452D01*
X198309523Y-111331071D01*
X198214285Y-111331071D01*
X198119047Y-111283452D01*
X198071428Y-111188214D01*
X198071428Y-110950119D01*
X198023809Y-110854880D01*
X197785714Y-109950119D02*
X198595238Y-109950119D01*
X198690476Y-109997738D01*
X198738095Y-110045357D01*
X198785714Y-110140595D01*
X198785714Y-110283452D01*
X198738095Y-110378690D01*
X198404761Y-109950119D02*
X198452380Y-110045357D01*
X198452380Y-110235833D01*
X198404761Y-110331071D01*
X198357142Y-110378690D01*
X198261904Y-110426309D01*
X197976190Y-110426309D01*
X197880952Y-110378690D01*
X197833333Y-110331071D01*
X197785714Y-110235833D01*
X197785714Y-110045357D01*
X197833333Y-109950119D01*
X198404761Y-109092976D02*
X198452380Y-109188214D01*
X198452380Y-109378690D01*
X198404761Y-109473928D01*
X198309523Y-109521547D01*
X197928571Y-109521547D01*
X197833333Y-109473928D01*
X197785714Y-109378690D01*
X197785714Y-109188214D01*
X197833333Y-109092976D01*
X197928571Y-109045357D01*
X198023809Y-109045357D01*
X198119047Y-109521547D01*
X198690476Y-99571428D02*
X199023809Y-99571428D01*
X199023809Y-99047619D02*
X199023809Y-100047619D01*
X198547619Y-100047619D01*
X198166666Y-100047619D02*
X198166666Y-99238095D01*
X198119047Y-99142857D01*
X198071428Y-99095238D01*
X197976190Y-99047619D01*
X197785714Y-99047619D01*
X197690476Y-99095238D01*
X197642857Y-99142857D01*
X197595238Y-99238095D01*
X197595238Y-100047619D01*
X197166666Y-99095238D02*
X197023809Y-99047619D01*
X196785714Y-99047619D01*
X196690476Y-99095238D01*
X196642857Y-99142857D01*
X196595238Y-99238095D01*
X196595238Y-99333333D01*
X196642857Y-99428571D01*
X196690476Y-99476190D01*
X196785714Y-99523809D01*
X196976190Y-99571428D01*
X197071428Y-99619047D01*
X197119047Y-99666666D01*
X197166666Y-99761904D01*
X197166666Y-99857142D01*
X197119047Y-99952380D01*
X197071428Y-100000000D01*
X196976190Y-100047619D01*
X196738095Y-100047619D01*
X196595238Y-100000000D01*
X196166666Y-99571428D02*
X195833333Y-99571428D01*
X195690476Y-99047619D02*
X196166666Y-99047619D01*
X196166666Y-100047619D01*
X195690476Y-100047619D01*
X195261904Y-99142857D02*
X195214285Y-99095238D01*
X195261904Y-99047619D01*
X195309523Y-99095238D01*
X195261904Y-99142857D01*
X195261904Y-99047619D01*
X195261904Y-99666666D02*
X195214285Y-99619047D01*
X195261904Y-99571428D01*
X195309523Y-99619047D01*
X195261904Y-99666666D01*
X195261904Y-99571428D01*
X193500000Y-99047619D02*
X194071428Y-99047619D01*
X193785714Y-99047619D02*
X193785714Y-100047619D01*
X193880952Y-99904761D01*
X193976190Y-99809523D01*
X194071428Y-99761904D01*
X193119047Y-99952380D02*
X193071428Y-100000000D01*
X192976190Y-100047619D01*
X192738095Y-100047619D01*
X192642857Y-100000000D01*
X192595238Y-99952380D01*
X192547619Y-99857142D01*
X192547619Y-99761904D01*
X192595238Y-99619047D01*
X193166666Y-99047619D01*
X192547619Y-99047619D01*
X191642857Y-100047619D02*
X192119047Y-100047619D01*
X192166666Y-99571428D01*
X192119047Y-99619047D01*
X192023809Y-99666666D01*
X191785714Y-99666666D01*
X191690476Y-99619047D01*
X191642857Y-99571428D01*
X191595238Y-99476190D01*
X191595238Y-99238095D01*
X191642857Y-99142857D01*
X191690476Y-99095238D01*
X191785714Y-99047619D01*
X192023809Y-99047619D01*
X192119047Y-99095238D01*
X192166666Y-99142857D01*
X191309523Y-100047619D02*
X190976190Y-99047619D01*
X190642857Y-100047619D01*
X189595238Y-99952380D02*
X189547619Y-100000000D01*
X189452380Y-100047619D01*
X189214285Y-100047619D01*
X189119047Y-100000000D01*
X189071428Y-99952380D01*
X189023809Y-99857142D01*
X189023809Y-99761904D01*
X189071428Y-99619047D01*
X189642857Y-99047619D01*
X189023809Y-99047619D01*
X188642857Y-99333333D02*
X188166666Y-99333333D01*
X188738095Y-99047619D02*
X188404761Y-100047619D01*
X188071428Y-99047619D01*
X186261904Y-100095238D02*
X187119047Y-98809523D01*
X185214285Y-99952380D02*
X185166666Y-100000000D01*
X185071428Y-100047619D01*
X184833333Y-100047619D01*
X184738095Y-100000000D01*
X184690476Y-99952380D01*
X184642857Y-99857142D01*
X184642857Y-99761904D01*
X184690476Y-99619047D01*
X185261904Y-99047619D01*
X184642857Y-99047619D01*
X183738095Y-100047619D02*
X184214285Y-100047619D01*
X184261904Y-99571428D01*
X184214285Y-99619047D01*
X184119047Y-99666666D01*
X183880952Y-99666666D01*
X183785714Y-99619047D01*
X183738095Y-99571428D01*
X183690476Y-99476190D01*
X183690476Y-99238095D01*
X183738095Y-99142857D01*
X183785714Y-99095238D01*
X183880952Y-99047619D01*
X184119047Y-99047619D01*
X184214285Y-99095238D01*
X184261904Y-99142857D01*
X183071428Y-100047619D02*
X182976190Y-100047619D01*
X182880952Y-100000000D01*
X182833333Y-99952380D01*
X182785714Y-99857142D01*
X182738095Y-99666666D01*
X182738095Y-99428571D01*
X182785714Y-99238095D01*
X182833333Y-99142857D01*
X182880952Y-99095238D01*
X182976190Y-99047619D01*
X183071428Y-99047619D01*
X183166666Y-99095238D01*
X183214285Y-99142857D01*
X183261904Y-99238095D01*
X183309523Y-99428571D01*
X183309523Y-99666666D01*
X183261904Y-99857142D01*
X183214285Y-99952380D01*
X183166666Y-100000000D01*
X183071428Y-100047619D01*
X182452380Y-100047619D02*
X182119047Y-99047619D01*
X181785714Y-100047619D01*
X180500000Y-100047619D02*
X180404761Y-100047619D01*
X180309523Y-100000000D01*
X180261904Y-99952380D01*
X180214285Y-99857142D01*
X180166666Y-99666666D01*
X180166666Y-99428571D01*
X180214285Y-99238095D01*
X180261904Y-99142857D01*
X180309523Y-99095238D01*
X180404761Y-99047619D01*
X180500000Y-99047619D01*
X180595238Y-99095238D01*
X180642857Y-99142857D01*
X180690476Y-99238095D01*
X180738095Y-99428571D01*
X180738095Y-99666666D01*
X180690476Y-99857142D01*
X180642857Y-99952380D01*
X180595238Y-100000000D01*
X180500000Y-100047619D01*
X179738095Y-99142857D02*
X179690476Y-99095238D01*
X179738095Y-99047619D01*
X179785714Y-99095238D01*
X179738095Y-99142857D01*
X179738095Y-99047619D01*
X178833333Y-100047619D02*
X179023809Y-100047619D01*
X179119047Y-100000000D01*
X179166666Y-99952380D01*
X179261904Y-99809523D01*
X179309523Y-99619047D01*
X179309523Y-99238095D01*
X179261904Y-99142857D01*
X179214285Y-99095238D01*
X179119047Y-99047619D01*
X178928571Y-99047619D01*
X178833333Y-99095238D01*
X178785714Y-99142857D01*
X178738095Y-99238095D01*
X178738095Y-99476190D01*
X178785714Y-99571428D01*
X178833333Y-99619047D01*
X178928571Y-99666666D01*
X179119047Y-99666666D01*
X179214285Y-99619047D01*
X179261904Y-99571428D01*
X179309523Y-99476190D01*
X178404761Y-100047619D02*
X177785714Y-100047619D01*
X178119047Y-99666666D01*
X177976190Y-99666666D01*
X177880952Y-99619047D01*
X177833333Y-99571428D01*
X177785714Y-99476190D01*
X177785714Y-99238095D01*
X177833333Y-99142857D01*
X177880952Y-99095238D01*
X177976190Y-99047619D01*
X178261904Y-99047619D01*
X178357142Y-99095238D01*
X178404761Y-99142857D01*
X177404761Y-99333333D02*
X176928571Y-99333333D01*
X177500000Y-99047619D02*
X177166666Y-100047619D01*
X176833333Y-99047619D01*
X187952380Y-120261904D02*
X187952380Y-120738095D01*
X188428571Y-120785714D01*
X188380952Y-120738095D01*
X188333333Y-120642857D01*
X188333333Y-120404761D01*
X188380952Y-120309523D01*
X188428571Y-120261904D01*
X188523809Y-120214285D01*
X188761904Y-120214285D01*
X188857142Y-120261904D01*
X188904761Y-120309523D01*
X188952380Y-120404761D01*
X188952380Y-120642857D01*
X188904761Y-120738095D01*
X188857142Y-120785714D01*
X180785714Y-120309523D02*
X181452380Y-120309523D01*
X180404761Y-120547619D02*
X181119047Y-120785714D01*
X181119047Y-120166666D01*
X172952380Y-120833333D02*
X172952380Y-120214285D01*
X173333333Y-120547619D01*
X173333333Y-120404761D01*
X173380952Y-120309523D01*
X173428571Y-120261904D01*
X173523809Y-120214285D01*
X173761904Y-120214285D01*
X173857142Y-120261904D01*
X173904761Y-120309523D01*
X173952380Y-120404761D01*
X173952380Y-120690476D01*
X173904761Y-120785714D01*
X173857142Y-120833333D01*
X165547619Y-120785714D02*
X165500000Y-120738095D01*
X165452380Y-120642857D01*
X165452380Y-120404761D01*
X165500000Y-120309523D01*
X165547619Y-120261904D01*
X165642857Y-120214285D01*
X165738095Y-120214285D01*
X165880952Y-120261904D01*
X166452380Y-120833333D01*
X166452380Y-120214285D01*
X158952380Y-120214285D02*
X158952380Y-120785714D01*
X158952380Y-120500000D02*
X157952380Y-120500000D01*
X158095238Y-120595238D01*
X158190476Y-120690476D01*
X158238095Y-120785714D01*
X157952380Y-126404761D02*
X157952380Y-126880952D01*
X156952380Y-126880952D01*
X158333333Y-125785714D02*
X158285714Y-125833333D01*
X158142857Y-125928571D01*
X158047619Y-125976190D01*
X157904761Y-126023809D01*
X157666666Y-126071428D01*
X157476190Y-126071428D01*
X157238095Y-126023809D01*
X157095238Y-125976190D01*
X157000000Y-125928571D01*
X156857142Y-125833333D01*
X156809523Y-125785714D01*
X157904761Y-125452380D02*
X157952380Y-125309523D01*
X157952380Y-125071428D01*
X157904761Y-124976190D01*
X157857142Y-124928571D01*
X157761904Y-124880952D01*
X157666666Y-124880952D01*
X157571428Y-124928571D01*
X157523809Y-124976190D01*
X157476190Y-125071428D01*
X157428571Y-125261904D01*
X157380952Y-125357142D01*
X157333333Y-125404761D01*
X157238095Y-125452380D01*
X157142857Y-125452380D01*
X157047619Y-125404761D01*
X157000000Y-125357142D01*
X156952380Y-125261904D01*
X156952380Y-125023809D01*
X157000000Y-124880952D01*
X156952380Y-124547619D02*
X157952380Y-124309523D01*
X157238095Y-124119047D01*
X157952380Y-123928571D01*
X156952380Y-123690476D01*
X158333333Y-123404761D02*
X158285714Y-123357142D01*
X158142857Y-123261904D01*
X158047619Y-123214285D01*
X157904761Y-123166666D01*
X157666666Y-123119047D01*
X157476190Y-123119047D01*
X157238095Y-123166666D01*
X157095238Y-123214285D01*
X157000000Y-123261904D01*
X156857142Y-123357142D01*
X156809523Y-123404761D01*
X176047619Y-126738095D02*
X176000000Y-126690476D01*
X175952380Y-126595238D01*
X175952380Y-126357142D01*
X176000000Y-126261904D01*
X176047619Y-126214285D01*
X176142857Y-126166666D01*
X176238095Y-126166666D01*
X176380952Y-126214285D01*
X176952380Y-126785714D01*
X176952380Y-126166666D01*
X176047619Y-125785714D02*
X176000000Y-125738095D01*
X175952380Y-125642857D01*
X175952380Y-125404761D01*
X176000000Y-125309523D01*
X176047619Y-125261904D01*
X176142857Y-125214285D01*
X176238095Y-125214285D01*
X176380952Y-125261904D01*
X176952380Y-125833333D01*
X176952380Y-125214285D01*
X175952380Y-124595238D02*
X175952380Y-124500000D01*
X176000000Y-124404761D01*
X176047619Y-124357142D01*
X176142857Y-124309523D01*
X176333333Y-124261904D01*
X176571428Y-124261904D01*
X176761904Y-124309523D01*
X176857142Y-124357142D01*
X176904761Y-124404761D01*
X176952380Y-124500000D01*
X176952380Y-124595238D01*
X176904761Y-124690476D01*
X176857142Y-124738095D01*
X176761904Y-124785714D01*
X176571428Y-124833333D01*
X176333333Y-124833333D01*
X176142857Y-124785714D01*
X176047619Y-124738095D01*
X176000000Y-124690476D01*
X175952380Y-124595238D01*
X185952380Y-126119047D02*
X185952380Y-126690476D01*
X185952380Y-126404761D02*
X184952380Y-126404761D01*
X185095238Y-126500000D01*
X185190476Y-126595238D01*
X185238095Y-126690476D01*
X184952380Y-125500000D02*
X184952380Y-125404761D01*
X185000000Y-125309523D01*
X185047619Y-125261904D01*
X185142857Y-125214285D01*
X185333333Y-125166666D01*
X185571428Y-125166666D01*
X185761904Y-125214285D01*
X185857142Y-125261904D01*
X185904761Y-125309523D01*
X185952380Y-125404761D01*
X185952380Y-125500000D01*
X185904761Y-125595238D01*
X185857142Y-125642857D01*
X185761904Y-125690476D01*
X185571428Y-125738095D01*
X185333333Y-125738095D01*
X185142857Y-125690476D01*
X185047619Y-125642857D01*
X185000000Y-125595238D01*
X184952380Y-125500000D01*
X184952380Y-124547619D02*
X184952380Y-124452380D01*
X185000000Y-124357142D01*
X185047619Y-124309523D01*
X185142857Y-124261904D01*
X185333333Y-124214285D01*
X185571428Y-124214285D01*
X185761904Y-124261904D01*
X185857142Y-124309523D01*
X185904761Y-124357142D01*
X185952380Y-124452380D01*
X185952380Y-124547619D01*
X185904761Y-124642857D01*
X185857142Y-124690476D01*
X185761904Y-124738095D01*
X185571428Y-124785714D01*
X185333333Y-124785714D01*
X185142857Y-124738095D01*
X185047619Y-124690476D01*
X185000000Y-124642857D01*
X184952380Y-124547619D01*
X184904761Y-123071428D02*
X186190476Y-123928571D01*
X185047619Y-122785714D02*
X185000000Y-122738095D01*
X184952380Y-122642857D01*
X184952380Y-122404761D01*
X185000000Y-122309523D01*
X185047619Y-122261904D01*
X185142857Y-122214285D01*
X185238095Y-122214285D01*
X185380952Y-122261904D01*
X185952380Y-122833333D01*
X185952380Y-122214285D01*
X184952380Y-121880952D02*
X184952380Y-121261904D01*
X185333333Y-121595238D01*
X185333333Y-121452380D01*
X185380952Y-121357142D01*
X185428571Y-121309523D01*
X185523809Y-121261904D01*
X185761904Y-121261904D01*
X185857142Y-121309523D01*
X185904761Y-121357142D01*
X185952380Y-121452380D01*
X185952380Y-121738095D01*
X185904761Y-121833333D01*
X185857142Y-121880952D01*
X184952380Y-120642857D02*
X184952380Y-120547619D01*
X185000000Y-120452380D01*
X185047619Y-120404761D01*
X185142857Y-120357142D01*
X185333333Y-120309523D01*
X185571428Y-120309523D01*
X185761904Y-120357142D01*
X185857142Y-120404761D01*
X185904761Y-120452380D01*
X185952380Y-120547619D01*
X185952380Y-120642857D01*
X185904761Y-120738095D01*
X185857142Y-120785714D01*
X185761904Y-120833333D01*
X185571428Y-120880952D01*
X185333333Y-120880952D01*
X185142857Y-120833333D01*
X185047619Y-120785714D01*
X185000000Y-120738095D01*
X184952380Y-120642857D01*
X194452380Y-126071428D02*
X194452380Y-126642857D01*
X194452380Y-126357142D02*
X193452380Y-126357142D01*
X193595238Y-126452380D01*
X193690476Y-126547619D01*
X193738095Y-126642857D01*
X194452380Y-125119047D02*
X194452380Y-125690476D01*
X194452380Y-125404761D02*
X193452380Y-125404761D01*
X193595238Y-125500000D01*
X193690476Y-125595238D01*
X193738095Y-125690476D01*
X193452380Y-124500000D02*
X193452380Y-124404761D01*
X193500000Y-124309523D01*
X193547619Y-124261904D01*
X193642857Y-124214285D01*
X193833333Y-124166666D01*
X194071428Y-124166666D01*
X194261904Y-124214285D01*
X194357142Y-124261904D01*
X194404761Y-124309523D01*
X194452380Y-124404761D01*
X194452380Y-124500000D01*
X194404761Y-124595238D01*
X194357142Y-124642857D01*
X194261904Y-124690476D01*
X194071428Y-124738095D01*
X193833333Y-124738095D01*
X193642857Y-124690476D01*
X193547619Y-124642857D01*
X193500000Y-124595238D01*
X193452380Y-124500000D01*
X193404761Y-123023809D02*
X194690476Y-123880952D01*
X194452380Y-122166666D02*
X194452380Y-122738095D01*
X194452380Y-122452380D02*
X193452380Y-122452380D01*
X193595238Y-122547619D01*
X193690476Y-122642857D01*
X193738095Y-122738095D01*
X193547619Y-121785714D02*
X193500000Y-121738095D01*
X193452380Y-121642857D01*
X193452380Y-121404761D01*
X193500000Y-121309523D01*
X193547619Y-121261904D01*
X193642857Y-121214285D01*
X193738095Y-121214285D01*
X193880952Y-121261904D01*
X194452380Y-121833333D01*
X194452380Y-121214285D01*
X193452380Y-120595238D02*
X193452380Y-120500000D01*
X193500000Y-120404761D01*
X193547619Y-120357142D01*
X193642857Y-120309523D01*
X193833333Y-120261904D01*
X194071428Y-120261904D01*
X194261904Y-120309523D01*
X194357142Y-120357142D01*
X194404761Y-120404761D01*
X194452380Y-120500000D01*
X194452380Y-120595238D01*
X194404761Y-120690476D01*
X194357142Y-120738095D01*
X194261904Y-120785714D01*
X194071428Y-120833333D01*
X193833333Y-120833333D01*
X193642857Y-120785714D01*
X193547619Y-120738095D01*
X193500000Y-120690476D01*
X193452380Y-120595238D01*
X193404761Y-119119047D02*
X194690476Y-119976190D01*
X193547619Y-118833333D02*
X193500000Y-118785714D01*
X193452380Y-118690476D01*
X193452380Y-118452380D01*
X193500000Y-118357142D01*
X193547619Y-118309523D01*
X193642857Y-118261904D01*
X193738095Y-118261904D01*
X193880952Y-118309523D01*
X194452380Y-118880952D01*
X194452380Y-118261904D01*
X193785714Y-117404761D02*
X194452380Y-117404761D01*
X193404761Y-117642857D02*
X194119047Y-117880952D01*
X194119047Y-117261904D01*
X193452380Y-116690476D02*
X193452380Y-116595238D01*
X193500000Y-116500000D01*
X193547619Y-116452380D01*
X193642857Y-116404761D01*
X193833333Y-116357142D01*
X194071428Y-116357142D01*
X194261904Y-116404761D01*
X194357142Y-116452380D01*
X194404761Y-116500000D01*
X194452380Y-116595238D01*
X194452380Y-116690476D01*
X194404761Y-116785714D01*
X194357142Y-116833333D01*
X194261904Y-116880952D01*
X194071428Y-116928571D01*
X193833333Y-116928571D01*
X193642857Y-116880952D01*
X193547619Y-116833333D01*
X193500000Y-116785714D01*
X193452380Y-116690476D01*
D12*
X156100000Y-125000000D02*
G75*
G03X156100000Y-125000000I-2100000J0D01*
G01*
X175100000Y-125000000D02*
G75*
G03X175100000Y-125000000I-2100000J0D01*
G01*
X184100000Y-125000000D02*
G75*
G03X184100000Y-125000000I-2100000J0D01*
G01*
X193100000Y-125000000D02*
G75*
G03X193100000Y-125000000I-2100000J0D01*
G01*
X175600000Y-100200000D02*
X175600000Y-103000000D01*
X175600000Y-100200000D02*
X153000000Y-100200000D01*
X175600000Y-109800000D02*
X153000000Y-109800000D01*
X175600000Y-107000000D02*
X175600000Y-109800000D01*
X153000000Y-107000000D02*
X153000000Y-109800000D01*
X153000000Y-100200000D02*
X153000000Y-103000000D01*
X161750000Y-118000000D02*
G75*
G03X161750000Y-118000000I-1750000J0D01*
G01*
X169250000Y-118000000D02*
G75*
G03X169250000Y-118000000I-1750000J0D01*
G01*
X176750000Y-118000000D02*
G75*
G03X176750000Y-118000000I-1750000J0D01*
G01*
X184250000Y-118000000D02*
G75*
G03X184250000Y-118000000I-1750000J0D01*
G01*
X191750000Y-118000000D02*
G75*
G03X191750000Y-118000000I-1750000J0D01*
G01*
D10*
X179452380Y-111595238D02*
X178976190Y-111928571D01*
X179452380Y-112166666D02*
X178452380Y-112166666D01*
X178452380Y-111785714D01*
X178500000Y-111690476D01*
X178547619Y-111642857D01*
X178642857Y-111595238D01*
X178785714Y-111595238D01*
X178880952Y-111642857D01*
X178928571Y-111690476D01*
X178976190Y-111785714D01*
X178976190Y-112166666D01*
X178452380Y-111309523D02*
X179452380Y-110976190D01*
X178452380Y-110642857D01*
X178547619Y-110357142D02*
X178500000Y-110309523D01*
X178452380Y-110214285D01*
X178452380Y-109976190D01*
X178500000Y-109880952D01*
X178547619Y-109833333D01*
X178642857Y-109785714D01*
X178738095Y-109785714D01*
X178880952Y-109833333D01*
X179452380Y-110404761D01*
X179452380Y-109785714D01*
X187904761Y-108952380D02*
X187571428Y-108476190D01*
X187333333Y-108952380D02*
X187333333Y-107952380D01*
X187714285Y-107952380D01*
X187809523Y-108000000D01*
X187857142Y-108047619D01*
X187904761Y-108142857D01*
X187904761Y-108285714D01*
X187857142Y-108380952D01*
X187809523Y-108428571D01*
X187714285Y-108476190D01*
X187333333Y-108476190D01*
X188190476Y-107952380D02*
X188523809Y-108952380D01*
X188857142Y-107952380D01*
X189095238Y-107952380D02*
X189714285Y-107952380D01*
X189380952Y-108333333D01*
X189523809Y-108333333D01*
X189619047Y-108380952D01*
X189666666Y-108428571D01*
X189714285Y-108523809D01*
X189714285Y-108761904D01*
X189666666Y-108857142D01*
X189619047Y-108904761D01*
X189523809Y-108952380D01*
X189238095Y-108952380D01*
X189142857Y-108904761D01*
X189095238Y-108857142D01*
X164904761Y-111952380D02*
X164571428Y-111476190D01*
X164333333Y-111952380D02*
X164333333Y-110952380D01*
X164714285Y-110952380D01*
X164809523Y-111000000D01*
X164857142Y-111047619D01*
X164904761Y-111142857D01*
X164904761Y-111285714D01*
X164857142Y-111380952D01*
X164809523Y-111428571D01*
X164714285Y-111476190D01*
X164333333Y-111476190D01*
X165190476Y-110952380D02*
X165523809Y-111952380D01*
X165857142Y-110952380D01*
X166714285Y-111952380D02*
X166142857Y-111952380D01*
X166428571Y-111952380D02*
X166428571Y-110952380D01*
X166333333Y-111095238D01*
X166238095Y-111190476D01*
X166142857Y-111238095D01*
X157666666Y-110928571D02*
X157333333Y-110928571D01*
X157333333Y-111452380D02*
X157333333Y-110452380D01*
X157809523Y-110452380D01*
X158714285Y-111452380D02*
X158142857Y-111452380D01*
X158428571Y-111452380D02*
X158428571Y-110452380D01*
X158333333Y-110595238D01*
X158238095Y-110690476D01*
X158142857Y-110738095D01*
X158738095Y-115054380D02*
X159309523Y-115054380D01*
X159023809Y-116054380D02*
X159023809Y-115054380D01*
X159642857Y-116054380D02*
X159642857Y-115054380D01*
X160023809Y-115054380D01*
X160119047Y-115102000D01*
X160166666Y-115149619D01*
X160214285Y-115244857D01*
X160214285Y-115387714D01*
X160166666Y-115482952D01*
X160119047Y-115530571D01*
X160023809Y-115578190D01*
X159642857Y-115578190D01*
X160595238Y-115149619D02*
X160642857Y-115102000D01*
X160738095Y-115054380D01*
X160976190Y-115054380D01*
X161071428Y-115102000D01*
X161119047Y-115149619D01*
X161166666Y-115244857D01*
X161166666Y-115340095D01*
X161119047Y-115482952D01*
X160547619Y-116054380D01*
X161166666Y-116054380D01*
X166238095Y-115054380D02*
X166809523Y-115054380D01*
X166523809Y-116054380D02*
X166523809Y-115054380D01*
X167142857Y-116054380D02*
X167142857Y-115054380D01*
X167523809Y-115054380D01*
X167619047Y-115102000D01*
X167666666Y-115149619D01*
X167714285Y-115244857D01*
X167714285Y-115387714D01*
X167666666Y-115482952D01*
X167619047Y-115530571D01*
X167523809Y-115578190D01*
X167142857Y-115578190D01*
X168047619Y-115054380D02*
X168666666Y-115054380D01*
X168333333Y-115435333D01*
X168476190Y-115435333D01*
X168571428Y-115482952D01*
X168619047Y-115530571D01*
X168666666Y-115625809D01*
X168666666Y-115863904D01*
X168619047Y-115959142D01*
X168571428Y-116006761D01*
X168476190Y-116054380D01*
X168190476Y-116054380D01*
X168095238Y-116006761D01*
X168047619Y-115959142D01*
X173738095Y-115054380D02*
X174309523Y-115054380D01*
X174023809Y-116054380D02*
X174023809Y-115054380D01*
X174642857Y-116054380D02*
X174642857Y-115054380D01*
X175023809Y-115054380D01*
X175119047Y-115102000D01*
X175166666Y-115149619D01*
X175214285Y-115244857D01*
X175214285Y-115387714D01*
X175166666Y-115482952D01*
X175119047Y-115530571D01*
X175023809Y-115578190D01*
X174642857Y-115578190D01*
X176071428Y-115387714D02*
X176071428Y-116054380D01*
X175833333Y-115006761D02*
X175595238Y-115721047D01*
X176214285Y-115721047D01*
X181238095Y-115054380D02*
X181809523Y-115054380D01*
X181523809Y-116054380D02*
X181523809Y-115054380D01*
X182142857Y-116054380D02*
X182142857Y-115054380D01*
X182523809Y-115054380D01*
X182619047Y-115102000D01*
X182666666Y-115149619D01*
X182714285Y-115244857D01*
X182714285Y-115387714D01*
X182666666Y-115482952D01*
X182619047Y-115530571D01*
X182523809Y-115578190D01*
X182142857Y-115578190D01*
X183571428Y-115054380D02*
X183380952Y-115054380D01*
X183285714Y-115102000D01*
X183238095Y-115149619D01*
X183142857Y-115292476D01*
X183095238Y-115482952D01*
X183095238Y-115863904D01*
X183142857Y-115959142D01*
X183190476Y-116006761D01*
X183285714Y-116054380D01*
X183476190Y-116054380D01*
X183571428Y-116006761D01*
X183619047Y-115959142D01*
X183666666Y-115863904D01*
X183666666Y-115625809D01*
X183619047Y-115530571D01*
X183571428Y-115482952D01*
X183476190Y-115435333D01*
X183285714Y-115435333D01*
X183190476Y-115482952D01*
X183142857Y-115530571D01*
X183095238Y-115625809D01*
X188738095Y-115054380D02*
X189309523Y-115054380D01*
X189023809Y-116054380D02*
X189023809Y-115054380D01*
X189642857Y-116054380D02*
X189642857Y-115054380D01*
X190023809Y-115054380D01*
X190119047Y-115102000D01*
X190166666Y-115149619D01*
X190214285Y-115244857D01*
X190214285Y-115387714D01*
X190166666Y-115482952D01*
X190119047Y-115530571D01*
X190023809Y-115578190D01*
X189642857Y-115578190D01*
X190785714Y-115482952D02*
X190690476Y-115435333D01*
X190642857Y-115387714D01*
X190595238Y-115292476D01*
X190595238Y-115244857D01*
X190642857Y-115149619D01*
X190690476Y-115102000D01*
X190785714Y-115054380D01*
X190976190Y-115054380D01*
X191071428Y-115102000D01*
X191119047Y-115149619D01*
X191166666Y-115244857D01*
X191166666Y-115292476D01*
X191119047Y-115387714D01*
X191071428Y-115435333D01*
X190976190Y-115482952D01*
X190785714Y-115482952D01*
X190690476Y-115530571D01*
X190642857Y-115578190D01*
X190595238Y-115673428D01*
X190595238Y-115863904D01*
X190642857Y-115959142D01*
X190690476Y-116006761D01*
X190785714Y-116054380D01*
X190976190Y-116054380D01*
X191071428Y-116006761D01*
X191119047Y-115959142D01*
X191166666Y-115863904D01*
X191166666Y-115673428D01*
X191119047Y-115578190D01*
X191071428Y-115530571D01*
X190976190Y-115482952D01*
M02*
