G04 #@! TF.GenerationSoftware,KiCad,Pcbnew,5.1.5-52549c5~84~ubuntu18.04.1*
G04 #@! TF.CreationDate,2020-01-16T13:38:08+00:00*
G04 #@! TF.ProjectId,012-fx888d-repair,3031322d-6678-4383-9838-642d72657061,1*
G04 #@! TF.SameCoordinates,Original*
G04 #@! TF.FileFunction,Profile,NP*
%FSLAX46Y46*%
G04 Gerber Fmt 4.6, Leading zero omitted, Abs format (unit mm)*
G04 Created by KiCad (PCBNEW 5.1.5-52549c5~84~ubuntu18.04.1) date 2020-01-16 13:38:08*
%MOMM*%
%LPD*%
G04 APERTURE LIST*
%ADD10C,0.050000*%
G04 APERTURE END LIST*
D10*
X186000000Y-107500000D02*
G75*
G02X185000000Y-108500000I-1000000J0D01*
G01*
X180250000Y-108500000D02*
G75*
G02X180250000Y-106500000I0J1000000D01*
G01*
X184000000Y-102750000D02*
G75*
G02X186000000Y-102750000I1000000J0D01*
G01*
X185000000Y-108500000D02*
X180250000Y-108500000D01*
X186000000Y-102750000D02*
X186000000Y-107500000D01*
X184000000Y-106500000D02*
X184000000Y-102750000D01*
X180250000Y-106500000D02*
X184000000Y-106500000D01*
X155250000Y-114000000D02*
G75*
G02X157250000Y-114000000I1000000J0D01*
G01*
X155250000Y-118000000D02*
X155250000Y-122000000D01*
X155250000Y-118000000D02*
X155250000Y-114000000D01*
X157250000Y-122000000D02*
X157250000Y-114000000D01*
X157250000Y-122000000D02*
G75*
G02X155250000Y-122000000I-1000000J0D01*
G01*
X170378680Y-122785534D02*
X172498680Y-120665534D01*
X170498680Y-119835534D02*
X168964466Y-121371320D01*
X170378680Y-122785534D02*
G75*
G02X168964466Y-121371320I-707107J707107D01*
G01*
X170500000Y-111000000D02*
G75*
G02X172500000Y-111000000I1000000J0D01*
G01*
X170500000Y-115000000D02*
X170500000Y-119835534D01*
X170500000Y-115000000D02*
X170500000Y-111000000D01*
X172500000Y-120665534D02*
X172500000Y-111000000D01*
X164750000Y-122000000D02*
G75*
G02X162750000Y-122000000I-1000000J0D01*
G01*
X162750000Y-114000000D02*
G75*
G02X164750000Y-114000000I1000000J0D01*
G01*
X164750000Y-122000000D02*
X164750000Y-114000000D01*
X162750000Y-118000000D02*
X162750000Y-122000000D01*
X162750000Y-118000000D02*
X162750000Y-114000000D01*
X150000000Y-128000000D02*
X150000000Y-98000000D01*
X200000000Y-128000000D02*
X150000000Y-128000000D01*
X200000000Y-98000000D02*
X200000000Y-128000000D01*
X150000000Y-98000000D02*
X200000000Y-98000000D01*
M02*
