G04 #@! TF.GenerationSoftware,KiCad,Pcbnew,5.1.5-52549c5~84~ubuntu18.04.1*
G04 #@! TF.CreationDate,2020-01-16T13:38:08+00:00*
G04 #@! TF.ProjectId,012-fx888d-repair,3031322d-6678-4383-9838-642d72657061,1*
G04 #@! TF.SameCoordinates,Original*
G04 #@! TF.FileFunction,Soldermask,Bot*
G04 #@! TF.FilePolarity,Negative*
%FSLAX46Y46*%
G04 Gerber Fmt 4.6, Leading zero omitted, Abs format (unit mm)*
G04 Created by KiCad (PCBNEW 5.1.5-52549c5~84~ubuntu18.04.1) date 2020-01-16 13:38:08*
%MOMM*%
%LPD*%
G04 APERTURE LIST*
%ADD10C,0.100000*%
G04 APERTURE END LIST*
D10*
G36*
X182361112Y-123184566D02*
G01*
X182539917Y-123220133D01*
X182679448Y-123277929D01*
X182876776Y-123359664D01*
X183179943Y-123562234D01*
X183437766Y-123820057D01*
X183640336Y-124123224D01*
X183779867Y-124460084D01*
X183851000Y-124817691D01*
X183851000Y-125182309D01*
X183779867Y-125539916D01*
X183640336Y-125876776D01*
X183437766Y-126179943D01*
X183179943Y-126437766D01*
X182876776Y-126640336D01*
X182679448Y-126722071D01*
X182539917Y-126779867D01*
X182361112Y-126815434D01*
X182182309Y-126851000D01*
X181817691Y-126851000D01*
X181638888Y-126815434D01*
X181460083Y-126779867D01*
X181320552Y-126722071D01*
X181123224Y-126640336D01*
X180820057Y-126437766D01*
X180562234Y-126179943D01*
X180359664Y-125876776D01*
X180220133Y-125539916D01*
X180149000Y-125182309D01*
X180149000Y-124817691D01*
X180220133Y-124460084D01*
X180359664Y-124123224D01*
X180562234Y-123820057D01*
X180820057Y-123562234D01*
X181123224Y-123359664D01*
X181320552Y-123277929D01*
X181460083Y-123220133D01*
X181638888Y-123184566D01*
X181817691Y-123149000D01*
X182182309Y-123149000D01*
X182361112Y-123184566D01*
G37*
G36*
X191361112Y-123184566D02*
G01*
X191539917Y-123220133D01*
X191679448Y-123277929D01*
X191876776Y-123359664D01*
X192179943Y-123562234D01*
X192437766Y-123820057D01*
X192640336Y-124123224D01*
X192779867Y-124460084D01*
X192851000Y-124817691D01*
X192851000Y-125182309D01*
X192779867Y-125539916D01*
X192640336Y-125876776D01*
X192437766Y-126179943D01*
X192179943Y-126437766D01*
X191876776Y-126640336D01*
X191679448Y-126722071D01*
X191539917Y-126779867D01*
X191361112Y-126815434D01*
X191182309Y-126851000D01*
X190817691Y-126851000D01*
X190638888Y-126815434D01*
X190460083Y-126779867D01*
X190320552Y-126722071D01*
X190123224Y-126640336D01*
X189820057Y-126437766D01*
X189562234Y-126179943D01*
X189359664Y-125876776D01*
X189220133Y-125539916D01*
X189149000Y-125182309D01*
X189149000Y-124817691D01*
X189220133Y-124460084D01*
X189359664Y-124123224D01*
X189562234Y-123820057D01*
X189820057Y-123562234D01*
X190123224Y-123359664D01*
X190320552Y-123277929D01*
X190460083Y-123220133D01*
X190638888Y-123184566D01*
X190817691Y-123149000D01*
X191182309Y-123149000D01*
X191361112Y-123184566D01*
G37*
G36*
X173361112Y-123184566D02*
G01*
X173539917Y-123220133D01*
X173679448Y-123277929D01*
X173876776Y-123359664D01*
X174179943Y-123562234D01*
X174437766Y-123820057D01*
X174640336Y-124123224D01*
X174779867Y-124460084D01*
X174851000Y-124817691D01*
X174851000Y-125182309D01*
X174779867Y-125539916D01*
X174640336Y-125876776D01*
X174437766Y-126179943D01*
X174179943Y-126437766D01*
X173876776Y-126640336D01*
X173679448Y-126722071D01*
X173539917Y-126779867D01*
X173361112Y-126815434D01*
X173182309Y-126851000D01*
X172817691Y-126851000D01*
X172638888Y-126815434D01*
X172460083Y-126779867D01*
X172320552Y-126722071D01*
X172123224Y-126640336D01*
X171820057Y-126437766D01*
X171562234Y-126179943D01*
X171359664Y-125876776D01*
X171220133Y-125539916D01*
X171149000Y-125182309D01*
X171149000Y-124817691D01*
X171220133Y-124460084D01*
X171359664Y-124123224D01*
X171562234Y-123820057D01*
X171820057Y-123562234D01*
X172123224Y-123359664D01*
X172320552Y-123277929D01*
X172460083Y-123220133D01*
X172638888Y-123184566D01*
X172817691Y-123149000D01*
X173182309Y-123149000D01*
X173361112Y-123184566D01*
G37*
G36*
X154361112Y-123184566D02*
G01*
X154539917Y-123220133D01*
X154679448Y-123277929D01*
X154876776Y-123359664D01*
X155179943Y-123562234D01*
X155437766Y-123820057D01*
X155640336Y-124123224D01*
X155779867Y-124460084D01*
X155851000Y-124817691D01*
X155851000Y-125182309D01*
X155779867Y-125539916D01*
X155640336Y-125876776D01*
X155437766Y-126179943D01*
X155179943Y-126437766D01*
X154876776Y-126640336D01*
X154679448Y-126722071D01*
X154539917Y-126779867D01*
X154361112Y-126815434D01*
X154182309Y-126851000D01*
X153817691Y-126851000D01*
X153638888Y-126815434D01*
X153460083Y-126779867D01*
X153320552Y-126722071D01*
X153123224Y-126640336D01*
X152820057Y-126437766D01*
X152562234Y-126179943D01*
X152359664Y-125876776D01*
X152220133Y-125539916D01*
X152149000Y-125182309D01*
X152149000Y-124817691D01*
X152220133Y-124460084D01*
X152359664Y-124123224D01*
X152562234Y-123820057D01*
X152820057Y-123562234D01*
X153123224Y-123359664D01*
X153320552Y-123277929D01*
X153460083Y-123220133D01*
X153638888Y-123184566D01*
X153817691Y-123149000D01*
X154182309Y-123149000D01*
X154361112Y-123184566D01*
G37*
G36*
X175302585Y-116478802D02*
G01*
X175452410Y-116508604D01*
X175734674Y-116625521D01*
X175988705Y-116795259D01*
X176204741Y-117011295D01*
X176374479Y-117265326D01*
X176491396Y-117547590D01*
X176551000Y-117847240D01*
X176551000Y-118152760D01*
X176491396Y-118452410D01*
X176374479Y-118734674D01*
X176204741Y-118988705D01*
X175988705Y-119204741D01*
X175734674Y-119374479D01*
X175452410Y-119491396D01*
X175302585Y-119521198D01*
X175152761Y-119551000D01*
X174847239Y-119551000D01*
X174697415Y-119521198D01*
X174547590Y-119491396D01*
X174265326Y-119374479D01*
X174011295Y-119204741D01*
X173795259Y-118988705D01*
X173625521Y-118734674D01*
X173508604Y-118452410D01*
X173449000Y-118152760D01*
X173449000Y-117847240D01*
X173508604Y-117547590D01*
X173625521Y-117265326D01*
X173795259Y-117011295D01*
X174011295Y-116795259D01*
X174265326Y-116625521D01*
X174547590Y-116508604D01*
X174697415Y-116478802D01*
X174847239Y-116449000D01*
X175152761Y-116449000D01*
X175302585Y-116478802D01*
G37*
G36*
X190302585Y-116478802D02*
G01*
X190452410Y-116508604D01*
X190734674Y-116625521D01*
X190988705Y-116795259D01*
X191204741Y-117011295D01*
X191374479Y-117265326D01*
X191491396Y-117547590D01*
X191551000Y-117847240D01*
X191551000Y-118152760D01*
X191491396Y-118452410D01*
X191374479Y-118734674D01*
X191204741Y-118988705D01*
X190988705Y-119204741D01*
X190734674Y-119374479D01*
X190452410Y-119491396D01*
X190302585Y-119521198D01*
X190152761Y-119551000D01*
X189847239Y-119551000D01*
X189697415Y-119521198D01*
X189547590Y-119491396D01*
X189265326Y-119374479D01*
X189011295Y-119204741D01*
X188795259Y-118988705D01*
X188625521Y-118734674D01*
X188508604Y-118452410D01*
X188449000Y-118152760D01*
X188449000Y-117847240D01*
X188508604Y-117547590D01*
X188625521Y-117265326D01*
X188795259Y-117011295D01*
X189011295Y-116795259D01*
X189265326Y-116625521D01*
X189547590Y-116508604D01*
X189697415Y-116478802D01*
X189847239Y-116449000D01*
X190152761Y-116449000D01*
X190302585Y-116478802D01*
G37*
G36*
X182802585Y-116478802D02*
G01*
X182952410Y-116508604D01*
X183234674Y-116625521D01*
X183488705Y-116795259D01*
X183704741Y-117011295D01*
X183874479Y-117265326D01*
X183991396Y-117547590D01*
X184051000Y-117847240D01*
X184051000Y-118152760D01*
X183991396Y-118452410D01*
X183874479Y-118734674D01*
X183704741Y-118988705D01*
X183488705Y-119204741D01*
X183234674Y-119374479D01*
X182952410Y-119491396D01*
X182802585Y-119521198D01*
X182652761Y-119551000D01*
X182347239Y-119551000D01*
X182197415Y-119521198D01*
X182047590Y-119491396D01*
X181765326Y-119374479D01*
X181511295Y-119204741D01*
X181295259Y-118988705D01*
X181125521Y-118734674D01*
X181008604Y-118452410D01*
X180949000Y-118152760D01*
X180949000Y-117847240D01*
X181008604Y-117547590D01*
X181125521Y-117265326D01*
X181295259Y-117011295D01*
X181511295Y-116795259D01*
X181765326Y-116625521D01*
X182047590Y-116508604D01*
X182197415Y-116478802D01*
X182347239Y-116449000D01*
X182652761Y-116449000D01*
X182802585Y-116478802D01*
G37*
G36*
X167802585Y-116478802D02*
G01*
X167952410Y-116508604D01*
X168234674Y-116625521D01*
X168488705Y-116795259D01*
X168704741Y-117011295D01*
X168874479Y-117265326D01*
X168991396Y-117547590D01*
X169051000Y-117847240D01*
X169051000Y-118152760D01*
X168991396Y-118452410D01*
X168874479Y-118734674D01*
X168704741Y-118988705D01*
X168488705Y-119204741D01*
X168234674Y-119374479D01*
X167952410Y-119491396D01*
X167802585Y-119521198D01*
X167652761Y-119551000D01*
X167347239Y-119551000D01*
X167197415Y-119521198D01*
X167047590Y-119491396D01*
X166765326Y-119374479D01*
X166511295Y-119204741D01*
X166295259Y-118988705D01*
X166125521Y-118734674D01*
X166008604Y-118452410D01*
X165949000Y-118152760D01*
X165949000Y-117847240D01*
X166008604Y-117547590D01*
X166125521Y-117265326D01*
X166295259Y-117011295D01*
X166511295Y-116795259D01*
X166765326Y-116625521D01*
X167047590Y-116508604D01*
X167197415Y-116478802D01*
X167347239Y-116449000D01*
X167652761Y-116449000D01*
X167802585Y-116478802D01*
G37*
G36*
X160302585Y-116478802D02*
G01*
X160452410Y-116508604D01*
X160734674Y-116625521D01*
X160988705Y-116795259D01*
X161204741Y-117011295D01*
X161374479Y-117265326D01*
X161491396Y-117547590D01*
X161551000Y-117847240D01*
X161551000Y-118152760D01*
X161491396Y-118452410D01*
X161374479Y-118734674D01*
X161204741Y-118988705D01*
X160988705Y-119204741D01*
X160734674Y-119374479D01*
X160452410Y-119491396D01*
X160302585Y-119521198D01*
X160152761Y-119551000D01*
X159847239Y-119551000D01*
X159697415Y-119521198D01*
X159547590Y-119491396D01*
X159265326Y-119374479D01*
X159011295Y-119204741D01*
X158795259Y-118988705D01*
X158625521Y-118734674D01*
X158508604Y-118452410D01*
X158449000Y-118152760D01*
X158449000Y-117847240D01*
X158508604Y-117547590D01*
X158625521Y-117265326D01*
X158795259Y-117011295D01*
X159011295Y-116795259D01*
X159265326Y-116625521D01*
X159547590Y-116508604D01*
X159697415Y-116478802D01*
X159847239Y-116449000D01*
X160152761Y-116449000D01*
X160302585Y-116478802D01*
G37*
G36*
X174306564Y-111989389D02*
G01*
X174497833Y-112068615D01*
X174497835Y-112068616D01*
X174669973Y-112183635D01*
X174816365Y-112330027D01*
X174931385Y-112502167D01*
X175010611Y-112693436D01*
X175051000Y-112896484D01*
X175051000Y-113103516D01*
X175010611Y-113306564D01*
X174931385Y-113497833D01*
X174931384Y-113497835D01*
X174816365Y-113669973D01*
X174669973Y-113816365D01*
X174497835Y-113931384D01*
X174497834Y-113931385D01*
X174497833Y-113931385D01*
X174306564Y-114010611D01*
X174103516Y-114051000D01*
X173896484Y-114051000D01*
X173693436Y-114010611D01*
X173502167Y-113931385D01*
X173502166Y-113931385D01*
X173502165Y-113931384D01*
X173330027Y-113816365D01*
X173183635Y-113669973D01*
X173068616Y-113497835D01*
X173068615Y-113497833D01*
X172989389Y-113306564D01*
X172949000Y-113103516D01*
X172949000Y-112896484D01*
X172989389Y-112693436D01*
X173068615Y-112502167D01*
X173183635Y-112330027D01*
X173330027Y-112183635D01*
X173502165Y-112068616D01*
X173502167Y-112068615D01*
X173693436Y-111989389D01*
X173896484Y-111949000D01*
X174103516Y-111949000D01*
X174306564Y-111989389D01*
G37*
G36*
X169306564Y-111989389D02*
G01*
X169497833Y-112068615D01*
X169497835Y-112068616D01*
X169669973Y-112183635D01*
X169816365Y-112330027D01*
X169931385Y-112502167D01*
X170010611Y-112693436D01*
X170051000Y-112896484D01*
X170051000Y-113103516D01*
X170010611Y-113306564D01*
X169931385Y-113497833D01*
X169931384Y-113497835D01*
X169816365Y-113669973D01*
X169669973Y-113816365D01*
X169497835Y-113931384D01*
X169497834Y-113931385D01*
X169497833Y-113931385D01*
X169306564Y-114010611D01*
X169103516Y-114051000D01*
X168896484Y-114051000D01*
X168693436Y-114010611D01*
X168502167Y-113931385D01*
X168502166Y-113931385D01*
X168502165Y-113931384D01*
X168330027Y-113816365D01*
X168183635Y-113669973D01*
X168068616Y-113497835D01*
X168068615Y-113497833D01*
X167989389Y-113306564D01*
X167949000Y-113103516D01*
X167949000Y-112896484D01*
X167989389Y-112693436D01*
X168068615Y-112502167D01*
X168183635Y-112330027D01*
X168330027Y-112183635D01*
X168502165Y-112068616D01*
X168502167Y-112068615D01*
X168693436Y-111989389D01*
X168896484Y-111949000D01*
X169103516Y-111949000D01*
X169306564Y-111989389D01*
G37*
G36*
X182806564Y-108989389D02*
G01*
X182997833Y-109068615D01*
X182997835Y-109068616D01*
X183169973Y-109183635D01*
X183316365Y-109330027D01*
X183431385Y-109502167D01*
X183510611Y-109693436D01*
X183551000Y-109896484D01*
X183551000Y-110103516D01*
X183510611Y-110306564D01*
X183431385Y-110497833D01*
X183431384Y-110497835D01*
X183316365Y-110669973D01*
X183169973Y-110816365D01*
X182997835Y-110931384D01*
X182997834Y-110931385D01*
X182997833Y-110931385D01*
X182806564Y-111010611D01*
X182603516Y-111051000D01*
X182396484Y-111051000D01*
X182193436Y-111010611D01*
X182002167Y-110931385D01*
X182002166Y-110931385D01*
X182002165Y-110931384D01*
X181830027Y-110816365D01*
X181683635Y-110669973D01*
X181568616Y-110497835D01*
X181568615Y-110497833D01*
X181489389Y-110306564D01*
X181449000Y-110103516D01*
X181449000Y-109896484D01*
X181489389Y-109693436D01*
X181568615Y-109502167D01*
X181683635Y-109330027D01*
X181830027Y-109183635D01*
X182002165Y-109068616D01*
X182002167Y-109068615D01*
X182193436Y-108989389D01*
X182396484Y-108949000D01*
X182603516Y-108949000D01*
X182806564Y-108989389D01*
G37*
G36*
X153302585Y-103478802D02*
G01*
X153452410Y-103508604D01*
X153734674Y-103625521D01*
X153988705Y-103795259D01*
X154204741Y-104011295D01*
X154374479Y-104265326D01*
X154491396Y-104547590D01*
X154551000Y-104847240D01*
X154551000Y-105152760D01*
X154491396Y-105452410D01*
X154374479Y-105734674D01*
X154204741Y-105988705D01*
X153988705Y-106204741D01*
X153734674Y-106374479D01*
X153452410Y-106491396D01*
X153302585Y-106521198D01*
X153152761Y-106551000D01*
X152847239Y-106551000D01*
X152697415Y-106521198D01*
X152547590Y-106491396D01*
X152265326Y-106374479D01*
X152011295Y-106204741D01*
X151795259Y-105988705D01*
X151625521Y-105734674D01*
X151508604Y-105452410D01*
X151449000Y-105152760D01*
X151449000Y-104847240D01*
X151508604Y-104547590D01*
X151625521Y-104265326D01*
X151795259Y-104011295D01*
X152011295Y-103795259D01*
X152265326Y-103625521D01*
X152547590Y-103508604D01*
X152697415Y-103478802D01*
X152847239Y-103449000D01*
X153152761Y-103449000D01*
X153302585Y-103478802D01*
G37*
G36*
X175902585Y-103478802D02*
G01*
X176052410Y-103508604D01*
X176334674Y-103625521D01*
X176588705Y-103795259D01*
X176804741Y-104011295D01*
X176974479Y-104265326D01*
X177091396Y-104547590D01*
X177151000Y-104847240D01*
X177151000Y-105152760D01*
X177091396Y-105452410D01*
X176974479Y-105734674D01*
X176804741Y-105988705D01*
X176588705Y-106204741D01*
X176334674Y-106374479D01*
X176052410Y-106491396D01*
X175902585Y-106521198D01*
X175752761Y-106551000D01*
X175447239Y-106551000D01*
X175297415Y-106521198D01*
X175147590Y-106491396D01*
X174865326Y-106374479D01*
X174611295Y-106204741D01*
X174395259Y-105988705D01*
X174225521Y-105734674D01*
X174108604Y-105452410D01*
X174049000Y-105152760D01*
X174049000Y-104847240D01*
X174108604Y-104547590D01*
X174225521Y-104265326D01*
X174395259Y-104011295D01*
X174611295Y-103795259D01*
X174865326Y-103625521D01*
X175147590Y-103508604D01*
X175297415Y-103478802D01*
X175447239Y-103449000D01*
X175752761Y-103449000D01*
X175902585Y-103478802D01*
G37*
G36*
X187806564Y-103989389D02*
G01*
X187997833Y-104068615D01*
X187997835Y-104068616D01*
X188169973Y-104183635D01*
X188316365Y-104330027D01*
X188431385Y-104502167D01*
X188510611Y-104693436D01*
X188551000Y-104896484D01*
X188551000Y-105103516D01*
X188510611Y-105306564D01*
X188450200Y-105452409D01*
X188431384Y-105497835D01*
X188316365Y-105669973D01*
X188169973Y-105816365D01*
X187997835Y-105931384D01*
X187997834Y-105931385D01*
X187997833Y-105931385D01*
X187806564Y-106010611D01*
X187603516Y-106051000D01*
X187396484Y-106051000D01*
X187193436Y-106010611D01*
X187002167Y-105931385D01*
X187002166Y-105931385D01*
X187002165Y-105931384D01*
X186830027Y-105816365D01*
X186683635Y-105669973D01*
X186568616Y-105497835D01*
X186549800Y-105452409D01*
X186489389Y-105306564D01*
X186449000Y-105103516D01*
X186449000Y-104896484D01*
X186489389Y-104693436D01*
X186568615Y-104502167D01*
X186683635Y-104330027D01*
X186830027Y-104183635D01*
X187002165Y-104068616D01*
X187002167Y-104068615D01*
X187193436Y-103989389D01*
X187396484Y-103949000D01*
X187603516Y-103949000D01*
X187806564Y-103989389D01*
G37*
G36*
X182806564Y-103989389D02*
G01*
X182997833Y-104068615D01*
X182997835Y-104068616D01*
X183169973Y-104183635D01*
X183316365Y-104330027D01*
X183431385Y-104502167D01*
X183510611Y-104693436D01*
X183551000Y-104896484D01*
X183551000Y-105103516D01*
X183510611Y-105306564D01*
X183450200Y-105452409D01*
X183431384Y-105497835D01*
X183316365Y-105669973D01*
X183169973Y-105816365D01*
X182997835Y-105931384D01*
X182997834Y-105931385D01*
X182997833Y-105931385D01*
X182806564Y-106010611D01*
X182603516Y-106051000D01*
X182396484Y-106051000D01*
X182193436Y-106010611D01*
X182002167Y-105931385D01*
X182002166Y-105931385D01*
X182002165Y-105931384D01*
X181830027Y-105816365D01*
X181683635Y-105669973D01*
X181568616Y-105497835D01*
X181549800Y-105452409D01*
X181489389Y-105306564D01*
X181449000Y-105103516D01*
X181449000Y-104896484D01*
X181489389Y-104693436D01*
X181568615Y-104502167D01*
X181683635Y-104330027D01*
X181830027Y-104183635D01*
X182002165Y-104068616D01*
X182002167Y-104068615D01*
X182193436Y-103989389D01*
X182396484Y-103949000D01*
X182603516Y-103949000D01*
X182806564Y-103989389D01*
G37*
M02*
